<svg version="1.1" viewBox="0.0 0.0 307.1994750656168 720.0" fill="none" stroke="none" stroke-linecap="square" stroke-miterlimit="10" xmlns:xlink="http://www.w3.org/1999/xlink" xmlns="http://www.w3.org/2000/svg"><clipPath id="p.0"><path d="m0 0l307.19946 0l0 720.0l-307.19946 0l0 -720.0z" clip-rule="nonzero"/></clipPath><g clip-path="url(#p.0)"><path fill="#000000" fill-opacity="0.0" d="m0 0l307.19946 0l0 720.0l-307.19946 0z" fill-rule="evenodd"/><path fill="#000000" d="m133.25722 -0.007875065l40.692917 0l0 720.0l-40.692917 0z" fill-rule="evenodd"/><path stroke="#595959" stroke-width="1.0" stroke-linejoin="round" stroke-linecap="butt" d="m133.25722 -0.007875065l40.692917 0l0 720.0l-40.692917 0z" fill-rule="evenodd"/><path fill="#ff0000" d="m5.804462 263.65714l0 0c0 -26.602982 21.56597 -48.168945 48.16894 -48.168945l199.25267 0l0 0c12.7752075 0 25.02716 5.0749207 34.060577 14.108353c9.033447 9.033432 14.108368 21.285385 14.108368 34.060593l0 192.66998c0 26.602966 -21.565979 48.168945 -48.168945 48.168945l-199.25267 0c-26.602972 0 -48.16894 -21.565979 -48.16894 -48.168945z" fill-rule="evenodd"/><path stroke="#000000" stroke-width="8.0" stroke-linejoin="round" stroke-linecap="butt" d="m5.804462 263.65714l0 0c0 -26.602982 21.56597 -48.168945 48.16894 -48.168945l199.25267 0l0 0c12.7752075 0 25.02716 5.0749207 34.060577 14.108353c9.033447 9.033432 14.108368 21.285385 14.108368 34.060593l0 192.66998c0 26.602966 -21.565979 48.168945 -48.168945 48.168945l-199.25267 0c-26.602972 0 -48.16894 -21.565979 -48.16894 -48.168945z" fill-rule="evenodd"/></g></svg>