<svg version="1.1" viewBox="0.0 0.0 1024.0 768.0" fill="none" stroke="none" stroke-linecap="square" stroke-miterlimit="10" xmlns:xlink="http://www.w3.org/1999/xlink" xmlns="http://www.w3.org/2000/svg"><clipPath id="p.0"><path d="m0 0l1024.0 0l0 768.0l-1024.0 0l0 -768.0z" clip-rule="nonzero"/></clipPath><g clip-path="url(#p.0)"><path fill="#000000" fill-opacity="0.0" d="m0 0l1024.0 0l0 768.0l-1024.0 0z" fill-rule="evenodd"/><path fill="#000000" d="m597.65155 90.656166l20.97638 0l0 381.1024l-20.97638 0z" fill-rule="evenodd"/><path stroke="#595959" stroke-width="1.0" stroke-linejoin="round" stroke-linecap="butt" d="m597.65155 90.656166l20.97638 0l0 381.1024l-20.97638 0z" fill-rule="evenodd"/><path fill="#ff0000" d="m529.0 225.0563l0 0c0 -14.568436 11.810059 -26.378479 26.378479 -26.378479l105.51074 0l0 0c6.9960327 0 13.705505 2.7791443 18.652405 7.726074c4.9469604 4.94693 7.726074 11.656387 7.726074 18.652405l0 112.3139c0 14.56842 -11.810059 26.378479 -26.378479 26.378479l-105.51074 0c-14.56842 0 -26.378479 -11.810059 -26.378479 -26.378479z" fill-rule="evenodd"/><path stroke="#595959" stroke-width="1.0" stroke-linejoin="round" stroke-linecap="butt" d="m529.0 225.0563l0 0c0 -14.568436 11.810059 -26.378479 26.378479 -26.378479l105.51074 0l0 0c6.9960327 0 13.705505 2.7791443 18.652405 7.726074c4.9469604 4.94693 7.726074 11.656387 7.726074 18.652405l0 112.3139c0 14.56842 -11.810059 26.378479 -26.378479 26.378479l-105.51074 0c-14.56842 0 -26.378479 -11.810059 -26.378479 -26.378479z" fill-rule="evenodd"/></g></svg>