<svg version="1.1" viewBox="0.0 0.0 1024.0 768.0" fill="none" stroke="none" stroke-linecap="square" stroke-miterlimit="10" xmlns:xlink="http://www.w3.org/1999/xlink" xmlns="http://www.w3.org/2000/svg"><clipPath id="p.0"><path d="m0 0l1024.0 0l0 768.0l-1024.0 0l0 -768.0z" clip-rule="nonzero"/></clipPath><g clip-path="url(#p.0)"><path fill="#000000" fill-opacity="0.0" d="m0 0l1024.0 0l0 768.0l-1024.0 0z" fill-rule="evenodd"/><path fill="#000000" d="m413.60828 90.656166l20.97638 0l0 381.1024l-20.97638 0z" fill-rule="evenodd"/><path stroke="#595959" stroke-width="1.0" stroke-linejoin="round" stroke-linecap="butt" d="m413.60828 90.656166l20.97638 0l0 381.1024l-20.97638 0z" fill-rule="evenodd"/><path fill="#1155cc" d="m365.13647 281.2116l0 0c0 -32.56305 26.397583 -58.960617 58.960632 -58.960617l0 0c15.637329 0 30.634216 6.211899 41.691467 17.269165c11.057251 11.057266 17.269165 26.054123 17.269165 41.691452l0 0c0 32.56305 -26.397583 58.960632 -58.960632 58.960632l0 0c-32.56305 0 -58.960632 -26.397583 -58.960632 -58.960632z" fill-rule="evenodd"/><path stroke="#595959" stroke-width="1.0" stroke-linejoin="round" stroke-linecap="butt" d="m365.13647 281.2116l0 0c0 -32.56305 26.397583 -58.960617 58.960632 -58.960617l0 0c15.637329 0 30.634216 6.211899 41.691467 17.269165c11.057251 11.057266 17.269165 26.054123 17.269165 41.691452l0 0c0 32.56305 -26.397583 58.960632 -58.960632 58.960632l0 0c-32.56305 0 -58.960632 -26.397583 -58.960632 -58.960632z" fill-rule="evenodd"/></g></svg>