<svg version="1.1" viewBox="0.0 0.0 307.1994750656168 720.0" fill="none" stroke="none" stroke-linecap="square" stroke-miterlimit="10" xmlns:xlink="http://www.w3.org/1999/xlink" xmlns="http://www.w3.org/2000/svg"><clipPath id="p.0"><path d="m0 0l307.19946 0l0 720.0l-307.19946 0l0 -720.0z" clip-rule="nonzero"/></clipPath><g clip-path="url(#p.0)"><path fill="#000000" fill-opacity="0.0" d="m0 0l307.19946 0l0 720.0l-307.19946 0z" fill-rule="evenodd"/><path fill="#000000" d="m133.25722 -0.007875065l40.692917 0l0 720.0l-40.692917 0z" fill-rule="evenodd"/><path stroke="#595959" stroke-width="1.0" stroke-linejoin="round" stroke-linecap="butt" d="m133.25722 -0.007875065l40.692917 0l0 720.0l-40.692917 0z" fill-rule="evenodd"/><path fill="#1155cc" d="m18.249344 359.99213l0 0c0 -74.75412 60.600197 -135.35432 135.35432 -135.35432l0 0c35.89821 0 70.32611 14.260498 95.70998 39.644363c25.383865 25.38385 39.644363 59.811768 39.644363 95.70996l0 0c0 74.75412 -60.600204 135.35434 -135.35434 135.35434l0 0c-74.75413 0 -135.35432 -60.60022 -135.35432 -135.35434z" fill-rule="evenodd"/><path stroke="#000000" stroke-width="8.0" stroke-linejoin="round" stroke-linecap="butt" d="m18.249344 359.99213l0 0c0 -74.75412 60.600197 -135.35432 135.35432 -135.35432l0 0c35.89821 0 70.32611 14.260498 95.70998 39.644363c25.383865 25.38385 39.644363 59.811768 39.644363 95.70996l0 0c0 74.75412 -60.600204 135.35434 -135.35434 135.35434l0 0c-74.75413 0 -135.35432 -60.60022 -135.35432 -135.35434z" fill-rule="evenodd"/></g></svg>