<svg version="1.1" viewBox="0.0 0.0 3000.0 100.0" fill="none" stroke="none" stroke-linecap="square" stroke-miterlimit="10" xmlns:xlink="http://www.w3.org/1999/xlink" xmlns="http://www.w3.org/2000/svg"><clipPath id="p.0"><path d="m0 0l3000.0 0l0 100.0l-3000.0 0l0 -100.0z" clip-rule="nonzero"/></clipPath><g clip-path="url(#p.0)"><path fill="#000000" fill-opacity="0.0" d="m0 0l3000.0 0l0 100.0l-3000.0 0z" fill-rule="evenodd"/><path fill="#000000" fill-opacity="0.0" d="m3.1968503 50.66142l1450.6771 -0.6614189" fill-rule="evenodd"/><path stroke="#ffffff" stroke-width="4.0" stroke-linejoin="round" stroke-linecap="butt" d="m3.1968503 50.66142l1450.6771 -0.6614189" fill-rule="evenodd"/><path fill="#000000" fill-opacity="0.0" d="m1546.126 50.0l1457.0708 0.6614189" fill-rule="evenodd"/><path stroke="#ffffff" stroke-width="4.0" stroke-linejoin="round" stroke-linecap="butt" d="m1546.126 50.0l1457.0708 0.6614189" fill-rule="evenodd"/><path fill="#000000" fill-opacity="0.0" d="m1453.874 50.0l0 0c0 -25.474678 20.651245 -46.125984 46.125977 -46.125984l0 0c12.233398 0 23.965698 4.859688 32.615967 13.509989c8.650269 8.650299 13.51001 20.382624 13.51001 32.615997l0 0c0 25.474678 -20.651245 46.125984 -46.125977 46.125984l0 0c-25.474731 0 -46.125977 -20.651306 -46.125977 -46.125984z" fill-rule="evenodd"/><path stroke="#ffffff" stroke-width="4.0" stroke-linejoin="round" stroke-linecap="butt" d="m1453.874 50.0l0 0c0 -25.474678 20.651245 -46.125984 46.125977 -46.125984l0 0c12.233398 0 23.965698 4.859688 32.615967 13.509989c8.650269 8.650299 13.51001 20.382624 13.51001 32.615997l0 0c0 25.474678 -20.651245 46.125984 -46.125977 46.125984l0 0c-25.474731 0 -46.125977 -20.651306 -46.125977 -46.125984z" fill-rule="evenodd"/></g></svg>