<svg version="1.1" viewBox="0.0 0.0 420.0 720.0" fill="none" stroke="none" stroke-linecap="square" stroke-miterlimit="10" xmlns:xlink="http://www.w3.org/1999/xlink" xmlns="http://www.w3.org/2000/svg"><clipPath id="p.0"><path d="m0 0l420.0 0l0 720.0l-420.0 0l0 -720.0z" clip-rule="nonzero"/></clipPath><g clip-path="url(#p.0)"><path fill="#000000" fill-opacity="0.0" d="m0 0l420.0 0l0 720.0l-420.0 0z" fill-rule="evenodd"/><path fill="#000000" d="m191.19751 0l37.606293 0l0 720.0l-37.606293 0z" fill-rule="evenodd"/><path stroke="#595959" stroke-width="1.0" stroke-linejoin="round" stroke-linecap="butt" d="m191.19751 0l37.606293 0l0 720.0l-37.606293 0z" fill-rule="evenodd"/><path fill="#fd4243" d="m13.871391 107.208015l0 0c0 -18.418556 14.9311905 -33.349747 33.349747 -33.349747l133.39499 0l0 0c8.844894 0 17.327545 3.513626 23.581833 9.767914c6.2542877 6.2542877 9.767914 14.736931 9.767914 23.581833l0 505.58398c0 18.41858 -14.931198 33.34973 -33.349747 33.34973l-133.39499 0c-18.418556 0 -33.349747 -14.931152 -33.349747 -33.34973z" fill-rule="evenodd"/><path stroke="#000000" stroke-width="16.0" stroke-linejoin="round" stroke-linecap="butt" d="m13.871391 107.208015l0 0c0 -18.418556 14.9311905 -33.349747 33.349747 -33.349747l133.39499 0l0 0c8.844894 0 17.327545 3.513626 23.581833 9.767914c6.2542877 6.2542877 9.767914 14.736931 9.767914 23.581833l0 505.58398c0 18.41858 -14.931198 33.34973 -33.349747 33.34973l-133.39499 0c-18.418556 0 -33.349747 -14.931152 -33.349747 -33.34973z" fill-rule="evenodd"/></g></svg>