<svg version="1.1" viewBox="0.0 0.0 307.1994750656168 720.0" fill="none" stroke="none" stroke-linecap="square" stroke-miterlimit="10" xmlns:xlink="http://www.w3.org/1999/xlink" xmlns="http://www.w3.org/2000/svg"><clipPath id="p.0"><path d="m0 0l307.19946 0l0 720.0l-307.19946 0l0 -720.0z" clip-rule="nonzero"/></clipPath><g clip-path="url(#p.0)"><path fill="#000000" fill-opacity="0.0" d="m0 0l307.19946 0l0 720.0l-307.19946 0z" fill-rule="evenodd"/><path fill="#000000" d="m133.25722 -0.007875065l40.72441 0l0 720.0l-40.72441 0z" fill-rule="evenodd"/><path stroke="#595959" stroke-width="1.0" stroke-linejoin="round" stroke-linecap="butt" d="m133.25722 -0.007875065l40.72441 0l0 720.0l-40.72441 0z" fill-rule="evenodd"/><path fill="#ff0000" d="m6.7322836 100.33386l0 0c0 -14.626419 11.857053 -26.483467 26.483467 -26.483467l105.9307 0l0 0c7.0238495 0 13.760025 2.7902145 18.726639 7.7568283c4.966614 4.966614 7.756836 11.702789 7.756836 18.726639l0 519.3165c0 14.626404 -11.857056 26.48346 -26.483475 26.48346l-105.9307 0c-14.626415 0 -26.483467 -11.857056 -26.483467 -26.48346z" fill-rule="evenodd"/><path stroke="#000000" stroke-width="16.0" stroke-linejoin="round" stroke-linecap="butt" d="m6.7322836 100.33386l0 0c0 -14.626419 11.857053 -26.483467 26.483467 -26.483467l105.9307 0l0 0c7.0238495 0 13.760025 2.7902145 18.726639 7.7568283c4.966614 4.966614 7.756836 11.702789 7.756836 18.726639l0 519.3165c0 14.626404 -11.857056 26.48346 -26.483475 26.48346l-105.9307 0c-14.626415 0 -26.483467 -11.857056 -26.483467 -26.48346z" fill-rule="evenodd"/></g></svg>