<svg version="1.1" viewBox="0.0 0.0 420.0 720.0" fill="none" stroke="none" stroke-linecap="square" stroke-miterlimit="10" xmlns:xlink="http://www.w3.org/1999/xlink" xmlns="http://www.w3.org/2000/svg"><clipPath id="p.0"><path d="m0 0l420.0 0l0 720.0l-420.0 0l0 -720.0z" clip-rule="nonzero"/></clipPath><g clip-path="url(#p.0)"><path fill="#000000" fill-opacity="0.0" d="m0 0l420.0 0l0 720.0l-420.0 0z" fill-rule="evenodd"/><path fill="#000000" d="m191.19751 0l37.606293 0l0 720.0l-37.606293 0z" fill-rule="evenodd"/><path stroke="#595959" stroke-width="1.0" stroke-linejoin="round" stroke-linecap="butt" d="m191.19751 0l37.606293 0l0 720.0l-37.606293 0z" fill-rule="evenodd"/><path fill="#fd4243" d="m208.979 107.8327l0 0c0 -18.763565 15.210876 -33.974434 33.974426 -33.974434l135.89365 0l0 0c9.01059 0 17.65213 3.5794373 24.02356 9.950882c6.37146 6.371437 9.950897 15.01297 9.950897 24.023552l0 504.3346c0 18.76355 -15.210876 33.974426 -33.974457 33.974426l-135.89365 0c-18.76355 0 -33.974426 -15.210876 -33.974426 -33.974426z" fill-rule="evenodd"/><path stroke="#000000" stroke-width="16.0" stroke-linejoin="round" stroke-linecap="butt" d="m208.979 107.8327l0 0c0 -18.763565 15.210876 -33.974434 33.974426 -33.974434l135.89365 0l0 0c9.01059 0 17.65213 3.5794373 24.02356 9.950882c6.37146 6.371437 9.950897 15.01297 9.950897 24.023552l0 504.3346c0 18.76355 -15.210876 33.974426 -33.974457 33.974426l-135.89365 0c-18.76355 0 -33.974426 -15.210876 -33.974426 -33.974426z" fill-rule="evenodd"/></g></svg>