<svg version="1.1" viewBox="0.0 0.0 307.1994750656168 720.0" fill="none" stroke="none" stroke-linecap="square" stroke-miterlimit="10" xmlns:xlink="http://www.w3.org/1999/xlink" xmlns="http://www.w3.org/2000/svg"><clipPath id="p.0"><path d="m0 0l307.19946 0l0 720.0l-307.19946 0l0 -720.0z" clip-rule="nonzero"/></clipPath><g clip-path="url(#p.0)"><path fill="#000000" fill-opacity="0.0" d="m0 0l307.19946 0l0 720.0l-307.19946 0z" fill-rule="evenodd"/><path fill="#000000" d="m173.5433 720.0l-40.661407 0l0 -720.0l40.661407 0z" fill-rule="evenodd"/><path stroke="#595959" stroke-width="1.0" stroke-linejoin="round" stroke-linecap="butt" d="m173.5433 720.0l-40.661407 0l0 -720.0l40.661407 0z" fill-rule="evenodd"/><path fill="#000000" d="m133.25722 -0.007875065l40.661423 0l0 720.0l-40.661423 0z" fill-rule="evenodd"/><path stroke="#595959" stroke-width="1.0" stroke-linejoin="round" stroke-linecap="butt" d="m133.25722 -0.007875065l40.661423 0l0 720.0l-40.661423 0z" fill-rule="evenodd"/><path fill="#ff0000" d="m142.1181 99.97952l0 0c0 -14.426369 11.694885 -26.121254 26.121262 -26.121254l104.48189 0l0 0c6.9277954 0 13.571838 2.7520523 18.47052 7.6507416c4.8986816 4.8986816 7.650757 11.542725 7.650757 18.470512l0 520.0409c0 14.426392 -11.694885 26.121277 -26.121277 26.121277l-104.48189 0c-14.426376 0 -26.121262 -11.694885 -26.121262 -26.121277z" fill-rule="evenodd"/><path stroke="#000000" stroke-width="16.0" stroke-linejoin="round" stroke-linecap="butt" d="m142.1181 99.97952l0 0c0 -14.426369 11.694885 -26.121254 26.121262 -26.121254l104.48189 0l0 0c6.9277954 0 13.571838 2.7520523 18.47052 7.6507416c4.8986816 4.8986816 7.650757 11.542725 7.650757 18.470512l0 520.0409c0 14.426392 -11.694885 26.121277 -26.121277 26.121277l-104.48189 0c-14.426376 0 -26.121262 -11.694885 -26.121262 -26.121277z" fill-rule="evenodd"/></g></svg>