<svg version="1.1" viewBox="0.0 0.0 420.0 720.0" fill="none" stroke="none" stroke-linecap="square" stroke-miterlimit="10" xmlns:xlink="http://www.w3.org/1999/xlink" xmlns="http://www.w3.org/2000/svg"><clipPath id="p.0"><path d="m0 0l420.0 0l0 720.0l-420.0 0l0 -720.0z" clip-rule="nonzero"/></clipPath><g clip-path="url(#p.0)"><path fill="#000000" fill-opacity="0.0" d="m0 0l420.0 0l0 720.0l-420.0 0z" fill-rule="evenodd"/><path fill="#000000" d="m191.19751 0l37.606293 0l0 720.0l-37.606293 0z" fill-rule="evenodd"/><path stroke="#595959" stroke-width="1.0" stroke-linejoin="round" stroke-linecap="butt" d="m191.19751 0l37.606293 0l0 720.0l-37.606293 0z" fill-rule="evenodd"/><path fill="#0ad3ff" d="m117.480316 360.0l0 0c0 -51.0972 41.42247 -92.519684 92.519684 -92.519684l0 0c24.53775 0 48.070496 9.747589 65.421295 27.098389c17.3508 17.3508 27.098389 40.883545 27.098389 65.421295l0 0c0 51.0972 -41.422485 92.519684 -92.519684 92.519684l0 0c-51.097214 0 -92.519684 -41.422485 -92.519684 -92.519684z" fill-rule="evenodd"/><path stroke="#000000" stroke-width="24.0" stroke-linejoin="round" stroke-linecap="butt" d="m117.480316 360.0l0 0c0 -51.0972 41.42247 -92.519684 92.519684 -92.519684l0 0c24.53775 0 48.070496 9.747589 65.421295 27.098389c17.3508 17.3508 27.098389 40.883545 27.098389 65.421295l0 0c0 51.0972 -41.422485 92.519684 -92.519684 92.519684l0 0c-51.097214 0 -92.519684 -41.422485 -92.519684 -92.519684z" fill-rule="evenodd"/></g></svg>